<svg width="38" height="48" viewBox="0 0 38 48" fill="none" xmlns="http://www.w3.org/2000/svg">
<path d="M34 1H4L1 5.63571M34 1L37 5.63571L25 24.1786M34 1L22 19.5429M1 5.63571H25L19 14.9071L16 10.2714M1 5.63571L16 28.8143L4 47.3571M1 5.63571L22 38.0857H16H28L10 10.2714M16 10.2714L28 28.8143M16 10.2714L37 42.7214M22 10.2714H10M10 10.2714L22 28.8143M37 42.7214L34 47.3571H4M37 42.7214H13L19 33.45M4 47.3571L1 42.7214L13 24.1786" stroke="white" stroke-linecap="round" stroke-linejoin="round"/>
</svg>
